<svg width="580" height="400" xmlns="http://www.w3.org/2000/svg">
 <!-- Created with Method Draw - http://github.com/duopixel/Method-Draw/ -->

 <g>
  <title>Layer 1</title>
  <g id="svg_23">
   <g id="svg_5">
    <g id="svg_6">
     <path id="svg_7" fill="#bababa" d="m1245.205668,-983.096606c-1.664,-3.989 -5.547,-6.592 -9.856,-6.592l-116.885,0l0,-266.666c0,-5.888 -4.779,-10.667 -10.667,-10.667l-170.667,0c-5.888,0 -10.667,4.779 -10.667,10.667l0,266.667l-117.333,0c-4.309,0 -8.192,2.603 -9.856,6.571c-1.643,3.989 -0.747,8.576 2.304,11.627l212.8,213.504c2.005,2.005 4.715,3.136 7.552,3.136s5.547,-1.131 7.552,-3.115l213.419,-213.504c3.051,-3.052 3.968,-7.638 2.304,-11.628z"/>
    </g>
   </g>
   <g id="svg_8"/>
   <g id="svg_9"/>
   <g id="svg_10"/>
   <g id="svg_11"/>
   <g id="svg_12"/>
   <g id="svg_13"/>
   <g id="svg_14"/>
   <g id="svg_15"/>
   <g id="svg_16"/>
   <g id="svg_17"/>
   <g id="svg_18"/>
   <g id="svg_19"/>
   <g id="svg_20"/>
   <g id="svg_21"/>
   <g id="svg_22"/>
  </g>
  <g transform="rotate(-180 291.50018310546875,200.20516967773435) " stroke="null" id="svg_92">
   <g stroke="null" transform="matrix(0.6911484846479612,0,0,0.6911484846479612,-2470.9204350655314,-1564.8553738715975) " id="svg_74">
    <g stroke="null" id="svg_75">
     <path stroke="null" id="svg_76" fill="#78b54c" d="m4219.816149,2581.646817c-1.664,-3.989 -5.547,-6.592 -9.856,-6.592l-116.885,0l0,-266.666c0,-5.888 -4.779,-10.667 -10.667,-10.667l-170.667,0c-5.888,0 -10.667,4.779 -10.667,10.667l0,266.667l-117.333,0c-4.309,0 -8.192,2.603 -9.856,6.571c-1.643,3.989 -0.747,8.576 2.304,11.627l212.8,213.504c2.005,2.005 4.715,3.136 7.552,3.136s5.547,-1.131 7.552,-3.115l213.419,-213.504c3.051,-3.052 3.968,-7.638 2.304,-11.628z"/>
    </g>
   </g>
   <g stroke="null" transform="matrix(0.6911484846479612,0,0,0.6911484846479612,-2470.9204350655314,-1564.8553738715975) " id="svg_77"/>
   <g stroke="null" transform="matrix(0.6911484846479612,0,0,0.6911484846479612,-2470.9204350655314,-1564.8553738715975) " id="svg_78"/>
   <g stroke="null" transform="matrix(0.6911484846479612,0,0,0.6911484846479612,-2470.9204350655314,-1564.8553738715975) " id="svg_79"/>
   <g stroke="null" transform="matrix(0.6911484846479612,0,0,0.6911484846479612,-2470.9204350655314,-1564.8553738715975) " id="svg_80"/>
   <g stroke="null" transform="matrix(0.6911484846479612,0,0,0.6911484846479612,-2470.9204350655314,-1564.8553738715975) " id="svg_81"/>
   <g stroke="null" transform="matrix(0.6911484846479612,0,0,0.6911484846479612,-2470.9204350655314,-1564.8553738715975) " id="svg_82"/>
   <g stroke="null" transform="matrix(0.6911484846479612,0,0,0.6911484846479612,-2470.9204350655314,-1564.8553738715975) " id="svg_83"/>
   <g stroke="null" transform="matrix(0.6911484846479612,0,0,0.6911484846479612,-2470.9204350655314,-1564.8553738715975) " id="svg_84"/>
   <g stroke="null" transform="matrix(0.6911484846479612,0,0,0.6911484846479612,-2470.9204350655314,-1564.8553738715975) " id="svg_85"/>
   <g stroke="null" transform="matrix(0.6911484846479612,0,0,0.6911484846479612,-2470.9204350655314,-1564.8553738715975) " id="svg_86"/>
   <g stroke="null" transform="matrix(0.6911484846479612,0,0,0.6911484846479612,-2470.9204350655314,-1564.8553738715975) " id="svg_87"/>
   <g stroke="null" transform="matrix(0.6911484846479612,0,0,0.6911484846479612,-2470.9204350655314,-1564.8553738715975) " id="svg_88"/>
   <g stroke="null" transform="matrix(0.6911484846479612,0,0,0.6911484846479612,-2470.9204350655314,-1564.8553738715975) " id="svg_89"/>
   <g stroke="null" transform="matrix(0.6911484846479612,0,0,0.6911484846479612,-2470.9204350655314,-1564.8553738715975) " id="svg_90"/>
   <g stroke="null" transform="matrix(0.6911484846479612,0,0,0.6911484846479612,-2470.9204350655314,-1564.8553738715975) " id="svg_91"/>
  </g>
 </g>
</svg>