<svg width="580" height="400" xmlns="http://www.w3.org/2000/svg">
 <!-- Created with Method Draw - http://github.com/duopixel/Method-Draw/ -->

 <g>
  <title>Layer 1</title>
  <g id="svg_23">
   <g id="svg_5">
    <g id="svg_6">
     <path id="svg_7" fill="#bababa" d="m1245.205668,-983.096606c-1.664,-3.989 -5.547,-6.592 -9.856,-6.592l-116.885,0l0,-266.666c0,-5.888 -4.779,-10.667 -10.667,-10.667l-170.667,0c-5.888,0 -10.667,4.779 -10.667,10.667l0,266.667l-117.333,0c-4.309,0 -8.192,2.603 -9.856,6.571c-1.643,3.989 -0.747,8.576 2.304,11.627l212.8,213.504c2.005,2.005 4.715,3.136 7.552,3.136s5.547,-1.131 7.552,-3.115l213.419,-213.504c3.051,-3.052 3.968,-7.638 2.304,-11.628z"/>
    </g>
   </g>
   <g id="svg_8"/>
   <g id="svg_9"/>
   <g id="svg_10"/>
   <g id="svg_11"/>
   <g id="svg_12"/>
   <g id="svg_13"/>
   <g id="svg_14"/>
   <g id="svg_15"/>
   <g id="svg_16"/>
   <g id="svg_17"/>
   <g id="svg_18"/>
   <g id="svg_19"/>
   <g id="svg_20"/>
   <g id="svg_21"/>
   <g id="svg_22"/>
  </g>
  <g stroke="null" id="svg_69">
   <g stroke="null" transform="matrix(0.6796743795905731,0,0,0.6796743795905731,-2429.6207293208463,-1588.138494073571) " id="svg_51">
    <g stroke="null" id="svg_52">
     <path stroke="null" id="svg_53" fill="#D80027" d="m4224.31969,2658.714504c-1.664,-3.989 -5.547,-6.592 -9.856,-6.592l-116.885,0l0,-266.666c0,-5.888 -4.779,-10.667 -10.667,-10.667l-170.667,0c-5.888,0 -10.667,4.779 -10.667,10.667l0,266.667l-117.333,0c-4.309,0 -8.192,2.603 -9.856,6.571c-1.643,3.989 -0.747,8.576 2.304,11.627l212.8,213.504c2.005,2.005 4.715,3.136 7.552,3.136s5.547,-1.131 7.552,-3.115l213.419,-213.504c3.051,-3.052 3.968,-7.638 2.304,-11.628z"/>
    </g>
   </g>
   <g stroke="null" transform="matrix(0.6796743795905731,0,0,0.6796743795905731,-2429.6207293208463,-1588.138494073571) " id="svg_54"/>
   <g stroke="null" transform="matrix(0.6796743795905731,0,0,0.6796743795905731,-2429.6207293208463,-1588.138494073571) " id="svg_55"/>
   <g stroke="null" transform="matrix(0.6796743795905731,0,0,0.6796743795905731,-2429.6207293208463,-1588.138494073571) " id="svg_56"/>
   <g stroke="null" transform="matrix(0.6796743795905731,0,0,0.6796743795905731,-2429.6207293208463,-1588.138494073571) " id="svg_57"/>
   <g stroke="null" transform="matrix(0.6796743795905731,0,0,0.6796743795905731,-2429.6207293208463,-1588.138494073571) " id="svg_58"/>
   <g stroke="null" transform="matrix(0.6796743795905731,0,0,0.6796743795905731,-2429.6207293208463,-1588.138494073571) " id="svg_59"/>
   <g stroke="null" transform="matrix(0.6796743795905731,0,0,0.6796743795905731,-2429.6207293208463,-1588.138494073571) " id="svg_60"/>
   <g stroke="null" transform="matrix(0.6796743795905731,0,0,0.6796743795905731,-2429.6207293208463,-1588.138494073571) " id="svg_61"/>
   <g stroke="null" transform="matrix(0.6796743795905731,0,0,0.6796743795905731,-2429.6207293208463,-1588.138494073571) " id="svg_62"/>
   <g stroke="null" transform="matrix(0.6796743795905731,0,0,0.6796743795905731,-2429.6207293208463,-1588.138494073571) " id="svg_63"/>
   <g stroke="null" transform="matrix(0.6796743795905731,0,0,0.6796743795905731,-2429.6207293208463,-1588.138494073571) " id="svg_64"/>
   <g stroke="null" transform="matrix(0.6796743795905731,0,0,0.6796743795905731,-2429.6207293208463,-1588.138494073571) " id="svg_65"/>
   <g stroke="null" transform="matrix(0.6796743795905731,0,0,0.6796743795905731,-2429.6207293208463,-1588.138494073571) " id="svg_66"/>
   <g stroke="null" transform="matrix(0.6796743795905731,0,0,0.6796743795905731,-2429.6207293208463,-1588.138494073571) " id="svg_67"/>
   <g stroke="null" transform="matrix(0.6796743795905731,0,0,0.6796743795905731,-2429.6207293208463,-1588.138494073571) " id="svg_68"/>
  </g>
 </g>
</svg>